<svg xmlns="http://www.w3.org/2000/svg" width="39.227" height="47.46" viewBox="0 0 39.227 47.46">
  <g id="Groupe_121" data-name="Groupe 121" transform="translate(-219.125 -114.69)">
    <path id="Rectangle_174" data-name="Rectangle 174" d="M0,0H19.465a8.307,8.307,0,0,1,8.307,8.307v0a8.307,8.307,0,0,1-8.307,8.307H0a0,0,0,0,1,0,0V0A0,0,0,0,1,0,0Z" transform="translate(224.866 118.024)" fill="#ffc794"/>
    <path id="Rectangle_175" data-name="Rectangle 175" d="M0,0H21.846a9.3,9.3,0,0,1,9.3,9.3v0a9.3,9.3,0,0,1-9.3,9.3H0a0,0,0,0,1,0,0V0A0,0,0,0,1,0,0Z" transform="translate(224.866 140.471)" fill="#ffc794"/>
    <path id="Tracé_17" data-name="Tracé 17" d="M242.722,114.69h-21.93a1.667,1.667,0,0,0,0,3.334h21.93a8.021,8.021,0,1,1,0,16.042h-21.93a1.667,1.667,0,0,0,0,3.334h21.93a11.355,11.355,0,1,0,0-22.71Z" fill="#f63"/>
    <path id="Tracé_18" data-name="Tracé 18" d="M245.977,188.066H220.942a1.817,1.817,0,0,0,0,3.634h25.035a8.741,8.741,0,0,1,0,17.483H220.942a1.817,1.817,0,1,0,0,3.633h25.035a12.375,12.375,0,1,0,0-24.75Z" transform="translate(0 -50.666)" fill="#f63"/>
    <path id="Tracé_19" data-name="Tracé 19" d="M246.646,210.526a.908.908,0,0,1,.908-.908h21.261a.908.908,0,0,1,0,1.817H247.554A.908.908,0,0,1,246.646,210.526Z" transform="translate(-19.003 -65.548)" fill="#f63"/>
    <path id="Tracé_20" data-name="Tracé 20" d="M247.611,226.931h22.581a.91.91,0,1,0,0-1.817H247.611a.91.91,0,1,0,0,1.817Z" transform="translate(-19.003 -76.248)" fill="#f63"/>
    <path id="Tracé_21" data-name="Tracé 21" d="M269.723,241.519a.908.908,0,0,0-.908-.908H247.554a.908.908,0,1,0,0,1.816h21.261A.908.908,0,0,0,269.723,241.519Z" transform="translate(-19.003 -86.948)" fill="#f63"/>
    <path id="Tracé_22" data-name="Tracé 22" d="M221.2,172.08h21.93a11.371,11.371,0,0,0,10.551-7.166c-2.95,5.565-8.07,5.292-8.07,5.292s-9.751.138-17.747,0c-5.972-.1-7.67.6-8.147.965A1.665,1.665,0,0,0,221.2,172.08Z" transform="translate(-0.41 -34.68)" fill="#f30" opacity="0.43"/>
    <path id="Tracé_23" data-name="Tracé 23" d="M221.4,250.728h25.035a12.392,12.392,0,0,0,11.477-7.756c-3.218,6.024-8.774,5.73-8.774,5.73s-11.763.15-20.476,0c-6.487-.112-8.346.651-8.873,1.047A1.815,1.815,0,0,0,221.4,250.728Z" transform="translate(-0.459 -88.578)" fill="#f30" opacity="0.43"/>
    <path id="Tracé_24" data-name="Tracé 24" d="M247.053,244a.9.9,0,0,0,.782.454H269.1a.523.523,0,1,0,0-.908h-21.26A.9.9,0,0,0,247.053,244Z" transform="translate(-19.284 -88.974)" fill="#f30" opacity="0.43"/>
    <path id="Tracé_25" data-name="Tracé 25" d="M247.078,228.5a.972.972,0,0,0,.831.454H270.49a.54.54,0,1,0,0-.908H247.909A.971.971,0,0,0,247.078,228.5Z" transform="translate(-19.301 -78.274)" fill="#f30" opacity="0.43"/>
    <path id="Tracé_26" data-name="Tracé 26" d="M247.053,213.007a.9.9,0,0,0,.782.454H269.1a.523.523,0,1,0,0-.908h-21.26A.9.9,0,0,0,247.053,213.007Z" transform="translate(-19.284 -67.574)" fill="#f30" opacity="0.43"/>
    <path id="Tracé_27" data-name="Tracé 27" d="M244.378,135.365a.834.834,0,0,1,.833-.833h18.466a.833.833,0,1,1,0,1.667H245.211A.833.833,0,0,1,244.378,135.365Z" transform="translate(-17.437 -13.7)" fill="#f63"/>
    <path id="Tracé_28" data-name="Tracé 28" d="M245.264,150.417h19.626a.835.835,0,1,0,0-1.667H245.264a.835.835,0,1,0,0,1.667Z" transform="translate(-17.437 -23.518)" fill="#f63"/>
    <path id="Tracé_29" data-name="Tracé 29" d="M264.511,163.8a.833.833,0,0,0-.833-.833H245.211a.833.833,0,1,0,0,1.667h18.466A.833.833,0,0,0,264.511,163.8Z" transform="translate(-17.437 -33.337)" fill="#f63"/>
    <path id="Tracé_30" data-name="Tracé 30" d="M244.751,166.079a.831.831,0,0,0,.718.417h18.466a.48.48,0,1,0,0-.833H245.469A.829.829,0,0,0,244.751,166.079Z" transform="translate(-17.695 -35.197)" fill="#f30" opacity="0.43"/>
    <path id="Tracé_31" data-name="Tracé 31" d="M244.775,151.86a.893.893,0,0,0,.763.417h19.626a.5.5,0,1,0,0-.834H245.538A.892.892,0,0,0,244.775,151.86Z" transform="translate(-17.711 -25.378)" fill="#f30" opacity="0.43"/>
    <path id="Tracé_32" data-name="Tracé 32" d="M244.751,137.641a.83.83,0,0,0,.718.417h18.466a.48.48,0,1,0,0-.833H245.469A.829.829,0,0,0,244.751,137.641Z" transform="translate(-17.695 -15.56)" fill="#f30" opacity="0.43"/>
  </g>
</svg>
