<svg xmlns="http://www.w3.org/2000/svg" width="13.334" height="16" viewBox="0 0 13.334 16">
  <g id="disabled" transform="translate(-1795.333 -317)">
    <path id="Tracé_14" data-name="Tracé 14" d="M16,24a2.5,2.5,0,0,0,2.449-2h-4.9A2.505,2.505,0,0,0,16,24Z" transform="translate(1786 309)" fill="#363636"/>
    <path id="Tracé_15" data-name="Tracé 15" d="M22.252,19.275a4.466,4.466,0,0,1-1.586-3.417V14a4.67,4.67,0,0,0-4-4.613v-.72a.667.667,0,1,0-1.333,0v.72a4.669,4.669,0,0,0-4,4.613v1.859a4.472,4.472,0,0,1-1.592,3.422,1.167,1.167,0,0,0,.759,2.053h11a1.167,1.167,0,0,0,.752-2.059Z" transform="translate(1786 309)" fill="#363636"/>
  </g>
</svg>
